name ./resultDataOpenSim/trcMotMarkerGrf/sub06/grf-04-02.mot
datacolumns 19
datarows 25
range 1.08000000 1.17600000
endheader

                time	     ground_force_vx	     ground_force_vy	     ground_force_vz	     ground_force_px	     ground_force_py	     ground_force_pz	   l_ground_force_vx	   l_ground_force_vy	   l_ground_force_vz	   l_ground_force_px	   l_ground_force_py	   l_ground_force_pz	     ground_torque_x	     ground_torque_y	     ground_torque_z	   l_ground_torque_x	   l_ground_torque_y	   l_ground_torque_z	
          1.08000000	          0.00000000	          0.00000000	          0.00000000	          0.00000000	          0.00000000	          0.00000000	        127.77583824	        739.83145226	         36.79454088	          0.08066503	         -0.07500000	         -0.01791234	          0.00000000	          0.00000000	          0.00000000	          0.00000000	         -2.44092916	          0.00000000	
          1.08400000	          0.00000000	          0.00000000	          0.00000000	          0.00000000	          0.00000000	          0.00000000	        135.27134171	        750.62272912	         35.71326929	          0.08118994	         -0.07500000	         -0.01753543	          0.00000000	          0.00000000	          0.00000000	          0.00000000	         -2.63073601	          0.00000000	
          1.08800000	          0.00000000	          0.00000000	          0.00000000	          0.00000000	          0.00000000	          0.00000000	        142.74211937	        759.17760892	         34.42184183	          0.08169853	         -0.07500000	         -0.01715220	          0.00000000	          0.00000000	          0.00000000	          0.00000000	         -2.80813475	          0.00000000	
          1.09200000	          0.00000000	          0.00000000	          0.00000000	          0.00000000	          0.00000000	          0.00000000	        150.09148748	        765.41763799	         33.01446981	          0.08223421	         -0.07500000	         -0.01674104	          0.00000000	          0.00000000	          0.00000000	          0.00000000	         -2.96696687	          0.00000000	
          1.09600000	          0.00000000	          0.00000000	          0.00000000	          0.00000000	          0.00000000	          0.00000000	        157.25266725	        769.25132008	         31.57263719	          0.08283215	         -0.07500000	         -0.01629165	          0.00000000	          0.00000000	          0.00000000	          0.00000000	         -3.10266023	          0.00000000	
          1.10000000	          0.00000000	          0.00000000	          0.00000000	          0.00000000	          0.00000000	          0.00000000	        164.18954787	        770.54439538	         30.12450366	          0.08350928	         -0.07500000	         -0.01581765	          0.00000000	          0.00000000	          0.00000000	          0.00000000	         -3.21279940	          0.00000000	
          1.10400000	          0.00000000	          0.00000000	          0.00000000	          0.00000000	          0.00000000	          0.00000000	        170.87264208	        769.14644021	         28.64465676	          0.08426232	         -0.07500000	         -0.01533684	          0.00000000	          0.00000000	          0.00000000	          0.00000000	         -3.29700231	          0.00000000	
          1.10800000	          0.00000000	          0.00000000	          0.00000000	          0.00000000	          0.00000000	          0.00000000	        177.25561201	        764.93974437	         27.08931794	          0.08507641	         -0.07500000	         -0.01485195	          0.00000000	          0.00000000	          0.00000000	          0.00000000	         -3.35606836	          0.00000000	
          1.11200000	          0.00000000	          0.00000000	          0.00000000	          0.00000000	          0.00000000	          0.00000000	        183.25581373	        757.85351409	         25.42123717	          0.08594879	         -0.07500000	         -0.01435718	          0.00000000	          0.00000000	          0.00000000	          0.00000000	         -3.39075462	          0.00000000	
          1.11600000	          0.00000000	          0.00000000	          0.00000000	          0.00000000	          0.00000000	          0.00000000	        188.73567450	        747.82058971	         23.60150920	          0.08686598	         -0.07500000	         -0.01384932	          0.00000000	          0.00000000	          0.00000000	          0.00000000	         -3.40075068	          0.00000000	
          1.12000000	          0.00000000	          0.00000000	          0.00000000	          0.00000000	          0.00000000	          0.00000000	        193.50279098	        734.68889338	         21.57346739	          0.08779831	         -0.07500000	         -0.01333396	          0.00000000	          0.00000000	          0.00000000	          0.00000000	         -3.38427462	          0.00000000	
          1.12400000	          0.00000000	          0.00000000	          0.00000000	          0.00000000	          0.00000000	          0.00000000	        197.32187839	        718.17361441	         19.27831756	          0.08870305	         -0.07500000	         -0.01283340	          0.00000000	          0.00000000	          0.00000000	          0.00000000	         -3.33835872	          0.00000000	
          1.12800000	         -5.35618695	         46.92941411	          1.77258717	          0.74261193	          0.00000000	          0.10019924	        199.91358962	        697.89728570	         16.69344922	          0.08956422	         -0.07500000	         -0.01236277	          0.00000000	          0.21971099	          0.00000000	          0.00000000	         -3.25960985	          0.00000000	
          1.13200000	        -18.16938747	        180.42423928	          8.68654300	          0.74700443	          0.00000000	          0.09838655	        200.96385044	        673.43475807	         13.85409126	          0.09037853	         -0.07500000	         -0.01193889	          0.00000000	          0.12990857	          0.00000000	          0.00000000	         -3.14513706	          0.00000000	
          1.13600000	        -31.59494699	        299.05015075	         15.19952504	          0.75114816	          0.00000000	          0.09702388	        200.17393857	        644.31877845	         10.86085301	          0.09114197	         -0.07500000	         -0.01158805	          0.00000000	          0.01344939	          0.00000000	          0.00000000	         -2.99340388	          0.00000000	
          1.14000000	        -46.07073744	        392.76631239	         20.55004998	          0.75476606	          0.00000000	          0.09664825	        197.30867763	        610.11301395	          7.88099717	          0.09190194	         -0.07500000	         -0.01132184	          0.00000000	         -0.14030646	          0.00000000	          0.00000000	         -2.80489479	          0.00000000	
          1.14400000	        -61.84300571	        460.34648722	         23.75532664	          0.75763810	          0.00000000	          0.09749489	        192.17477264	        570.62258049	          5.10751250	          0.09274602	         -0.07500000	         -0.01114246	          0.00000000	         -0.32748991	          0.00000000	          0.00000000	         -2.58257267	          0.00000000	
          1.14800000	        -78.86724977	        507.78629672	         24.14519936	          0.76039622	          0.00000000	          0.09901766	        184.55042119	        526.10567757	          2.68521379	          0.09375272	         -0.07500000	         -0.01105112	          0.00000000	         -0.52695968	          0.00000000	          0.00000000	         -2.33203737	          0.00000000	
          1.15200000	        -97.10591904	        543.11087558	         21.70514140	          0.76412746	          0.00000000	          0.10047248	        174.18965022	        477.33202211	          0.68284587	          0.09497705	         -0.07500000	         -0.01104443	          0.00000000	         -0.70245871	          0.00000000	          0.00000000	         -2.06117429	          0.00000000	
          1.15600000	       -116.39476216	        571.87182809	         16.91520125	          0.76920623	          0.00000000	          0.10168404	        160.97054707	        425.51258441	         -0.87220055	          0.09647213	         -0.07500000	         -0.01111555	          0.00000000	         -0.81068901	          0.00000000	          0.00000000	         -1.77925955	          0.00000000	
          1.16000000	       -135.89298177	        596.53123481	         10.48344779	          0.77485553	          0.00000000	          0.10294085	        145.08725050	        372.20540667	         -1.96330993	          0.09829516	         -0.07500000	         -0.01126524	          0.00000000	         -0.81496101	          0.00000000	          0.00000000	         -1.49595598	          0.00000000	
          1.16400000	       -154.30083932	        618.57038259	          3.22082470	          0.77999126	          0.00000000	          0.10436074	        127.14594059	        319.23534885	         -2.59180846	          0.10048621	         -0.07500000	         -0.01149833	          0.00000000	         -0.70056311	          0.00000000	          0.00000000	         -1.22074840	          0.00000000	
          1.16800000	       -170.98983823	        640.00664027	         -4.14453562	          0.78434239	          0.00000000	          0.10568967	        108.13063978	        268.53573228	         -2.80238880	          0.10302775	         -0.07500000	         -0.01180412	          0.00000000	         -0.48464268	          0.00000000	          0.00000000	         -0.96281414	          0.00000000	
          1.17200000	       -186.50788714	        663.00750226	        -11.12854329	          0.78857146	          0.00000000	          0.10663740	         89.26007428	        221.81933102	         -2.70172758	          0.10580245	         -0.07500000	         -0.01215437	          0.00000000	         -0.21442931	          0.00000000	          0.00000000	         -0.73078127	          0.00000000	
          1.17600000	       -201.64564629	        688.86685340	        -17.35308393	          0.79322034	          0.00000000	          0.10715554	         71.74655540	        180.21231123	         -2.44005732	          0.10863256	         -0.07500000	         -0.01252005	          0.00000000	          0.04646978	          0.00000000	          0.00000000	         -0.53200644	          0.00000000	
